<svg width="68" height="107" viewBox="0 0 68 107" fill="none" xmlns="http://www.w3.org/2000/svg">
<g clip-path="url(#clip0_257_1802)">
<path d="M62.272 37.8699C62.0008 34.6519 61.9626 29.1092 63.8559 27.2481C63.8897 27.214 63.9149 27.1647 63.9446 27.1224C65.4925 26.3408 66.5637 25.2439 65.7228 23.7678L42.8889 12.9062L5.91562 21.0215C5.91562 21.0215 1.68171 21.9769 2.05993 32.3614C2.26526 38.0133 3.38812 40.7891 4.3701 42.1552L1.33611 43.5986C0.494007 45.0746 1.56504 46.1719 3.11316 46.9522C3.14258 46.9958 3.16739 47.0448 3.20181 47.0789C5.09393 48.9416 5.05751 54.4836 4.78535 57.7023C-2.01208 60.7494 0.427968 61.7424 0.427968 61.7424L1.91905 62.312C0.87023 63.8082 -0.171386 66.6456 0.0237292 72.0268C0.402153 82.4094 3.87981 83.1259 3.87981 83.1259L28.0749 95.5413L64.5946 81.5766C64.5946 81.5766 67.0354 80.5821 60.2362 77.5346C59.9628 74.321 59.9248 68.7797 61.8213 66.9122C61.8561 66.879 61.8815 66.8288 61.9098 66.7871C63.4579 66.0055 64.5281 64.9095 63.687 63.4335L62.0997 62.6769C63.1583 61.6691 64.7484 59.0352 64.9976 52.1934C65.1695 47.4874 64.3918 44.7312 63.4917 43.1086L66.6292 41.91C66.6294 41.9119 69.0702 40.9174 62.272 37.8699ZM31.7255 37.7369L37.8667 35.7444L58.6206 29.0113L61.7126 28.0073C60.7247 30.862 60.7661 34.7688 60.9296 37.2798C60.9654 37.8478 61.0066 38.3666 61.0466 38.7608L57.6623 40.0893L31.4673 50.3769L31.7255 37.7369ZM5.34528 47.8412L8.43691 48.8452L28.3681 55.3135L30.1093 55.8765L35.331 57.5709L35.5886 70.2111L8.66584 59.6367L6.01167 58.5954C6.0507 58.2005 6.09192 57.6824 6.12934 57.1128C6.29184 54.6037 6.33406 50.6959 5.34528 47.8412ZM4.14417 31.8616C4.10675 29.0994 4.41853 27.1018 5.0487 26.0864C5.44974 25.4382 5.92302 25.3033 6.24761 25.3033C6.41911 25.3033 6.54259 25.3408 6.55099 25.3408L22.4818 33.5401L30.4299 37.6311L30.1692 50.3595L7.87157 40.4905L6.69488 39.9702C6.65165 39.9509 6.59302 39.9377 6.54779 39.9345C6.45594 39.9241 4.25143 39.6037 4.14417 31.8616ZM28.1326 90.0267L4.65887 79.6371C4.61545 79.6172 4.55741 79.604 4.51219 79.6005C4.41873 79.5907 2.21323 79.2707 2.10656 71.5304C2.06854 68.7648 2.38193 66.7691 3.0109 65.7527C3.41294 65.1045 3.88642 64.9696 4.21041 64.9696C4.38231 64.9696 4.50538 65.0059 4.51439 65.0059C4.51439 65.0059 4.51539 65.0059 4.51439 65.0059L28.3917 77.298L28.1326 90.0267ZM58.8918 76.9451C58.9288 77.5151 58.97 78.0329 59.01 78.4278L29.4301 90.0448L29.6887 77.4045L36.0126 75.3519L36.9466 75.7086L40.4471 73.9125L56.5828 68.6779L59.676 67.6733C58.6871 70.5277 58.7281 74.436 58.8918 76.9451ZM60.5211 59.7665C60.4673 59.7684 60.4135 59.7798 60.3628 59.8051L58.1319 60.7911L36.8898 70.1944L36.63 57.466L43.5993 53.8773L60.4747 45.189C60.4769 45.1874 61.3624 44.8769 62.0124 45.9204C62.6416 46.9358 62.9538 48.9334 62.917 51.6955C62.8069 59.4351 60.6014 59.7568 60.5211 59.7665Z" fill="white"/>
</g>
<defs>
<clipPath id="clip0_257_1802">
<rect width="67.0557" height="105.861" fill="white" transform="translate(0 0.303711)"/>
</clipPath>
</defs>
</svg>
