<svg width="43" height="43" viewBox="0 0 43 43" fill="none" xmlns="http://www.w3.org/2000/svg">
<g clip-path="url(#clip0_299_3928)">
<path d="M39.5095 15.5205C39.3397 14.2437 39.3158 12.0447 40.5016 11.3063C40.5228 11.2928 40.5386 11.2732 40.5572 11.2564C41.5267 10.9463 42.1976 10.5111 41.671 9.92552L27.3691 5.61621L4.21107 8.83591C4.21107 8.83591 1.55919 9.21495 1.79609 13.335C1.92469 15.5774 2.62799 16.6787 3.24305 17.2206L1.34272 17.7933C0.815278 18.3789 1.48611 18.8143 2.45577 19.1239C2.47419 19.1412 2.48974 19.1606 2.51129 19.1741C3.69641 19.9131 3.6736 22.1119 3.50313 23.3889C-0.754392 24.5979 0.773915 24.9918 0.773915 24.9918L1.70785 25.2178C1.05092 25.8114 0.398513 26.9372 0.520722 29.0721C0.757746 33.1914 2.93596 33.4757 2.93596 33.4757L18.0904 38.4015L40.9643 32.861C40.9643 32.861 42.4931 32.4664 38.2344 31.2574C38.0632 29.9824 38.0394 27.7838 39.2273 27.0429C39.2491 27.0298 39.265 27.0098 39.2827 26.9933C40.2523 26.6832 40.9227 26.2484 40.3958 25.6628L39.4016 25.3626C40.0647 24.9627 41.0607 23.9178 41.2167 21.2033C41.3244 19.3362 40.8373 18.2427 40.2735 17.5989L42.2386 17.1234C42.2388 17.1241 43.7676 16.7295 39.5095 15.5205ZM20.3769 15.4677L24.2235 14.6772L37.2225 12.0058L39.1592 11.6075C38.5404 12.7401 38.5663 14.2901 38.6687 15.2863C38.6912 15.5117 38.717 15.7175 38.7421 15.874L36.6223 16.401L20.2152 20.4826L20.3769 15.4677ZM3.85384 19.4766L5.79027 19.8749L18.2741 22.4412L19.3647 22.6646L22.6352 23.3368L22.7966 28.3518L5.93366 24.1564L4.27124 23.7433C4.29568 23.5866 4.3215 23.381 4.34494 23.155C4.44672 22.1596 4.47316 20.6092 3.85384 19.4766ZM3.10153 13.1367C3.0781 12.0408 3.27338 11.2483 3.66808 10.8454C3.91927 10.5882 4.21571 10.5347 4.41901 10.5347C4.52643 10.5347 4.60377 10.5496 4.60903 10.5496L14.5872 13.8026L19.5655 15.4257L19.4021 20.4757L5.43617 16.5602L4.69916 16.3538C4.67208 16.3461 4.63536 16.3409 4.60703 16.3396C4.5495 16.3355 3.16872 16.2084 3.10153 13.1367ZM18.1265 36.2136L3.42392 32.0915C3.39672 32.0836 3.36037 32.0784 3.33204 32.077C3.2735 32.0731 1.8921 31.9461 1.82529 28.8752C1.80148 27.778 1.99776 26.9862 2.39172 26.5829C2.64353 26.3257 2.94009 26.2722 3.14302 26.2722C3.25069 26.2722 3.32778 26.2866 3.33342 26.2866C3.33342 26.2866 3.33405 26.2866 3.33342 26.2866L18.2888 31.1635L18.1265 36.2136ZM37.3924 31.0235C37.4156 31.2496 37.4414 31.455 37.4664 31.6117L18.9392 36.2207L19.1012 31.2057L23.0622 30.3914L23.6471 30.5329L25.8396 29.8203L35.9462 27.7435L37.8836 27.3449C37.2641 28.4774 37.2898 30.028 37.3924 31.0235ZM38.4129 24.2079C38.3792 24.2087 38.3455 24.2132 38.3138 24.2232L36.9164 24.6144L23.6115 28.3451L23.4488 23.2952L27.814 21.8714L38.3838 18.4243C38.3852 18.4237 38.9399 18.3005 39.347 18.7145C39.741 19.1173 39.9366 19.9099 39.9135 21.0058C39.8446 24.0764 38.4632 24.204 38.4129 24.2079Z" fill="white"/>
</g>
<defs>
<clipPath id="clip0_299_3928">
<rect width="41.9999" height="42" fill="white" transform="translate(0.505859 0.616211)"/>
</clipPath>
</defs>
</svg>
